<svg xmlns="http://www.w3.org/2000/svg" viewBox="0 0 900 180"><rect width="900" height="180" rx="24" fill="#c3e9e5"/><g fill="none" stroke="#eafaf4" stroke-width="3"><path d="M20 45q20 12 40 0t40 0m200-10q20 12 40 0t40 0m80 120q20 12 40 0t40 0m230-120q20 12 40 0t40 0M20 145q20 12 40 0t40 0m620 0q20 12 40 0t40 0"/></g><path d="M125 100Q225 175 340 85T560 95T785 80" fill="none" stroke="#fffcef" stroke-width="8" stroke-dasharray="9 10"/><g stroke="#f7e7b5" stroke-width="7"><ellipse cx="125" cy="90" rx="87" ry="54" fill="#83bd85"/><ellipse cx="340" cy="95" rx="80" ry="52" fill="#a0c8dc"/><ellipse cx="560" cy="87" rx="85" ry="52" fill="#e3c27a"/><ellipse cx="785" cy="92" rx="83" ry="53" fill="#b4a5d7"/></g><g fill="#377f60"><path d="m71 53 18-27 18 27zm77 75 15-27 15 27z"/><circle cx="153" cy="56" r="17"/></g><g fill="#668caf"><path d="m290 100 24-57 29 57zm55 8 30-65 26 65z"/></g><g fill="#fff8ef"><path d="m304 68 10-25 12 25-12-6zm58 3 13-28 12 27-13-8z"/></g><g fill="#f5e483"><circle cx="515" cy="77" r="14"/><circle cx="594" cy="61" r="14"/><circle cx="605" cy="115" r="12"/></g><g fill="#9580be"><path d="m729 87 13-29 15 29-15 23zm79 26 14-37 16 37-16 20z"/></g><g fill="#fffdf1" stroke="#427967" stroke-width="3"><circle cx="125" cy="93" r="24"/><circle cx="340" cy="96" r="24"/><circle cx="560" cy="90" r="24"/><circle cx="785" cy="94" r="24"/></g><g fill="#244d41" font-family="system-ui,sans-serif" font-size="30" font-weight="800" text-anchor="middle"><text x="125" y="104">+</text><text x="340" y="107">−</text><text x="560" y="101">×</text><text x="785" y="105">÷</text></g></svg>
